<svg xmlns="http://www.w3.org/2000/svg" width="16" height="16">
<path id="bottom_half" transform="translate(3.4, 8.1), scale(2.5, 2.5)" fill="#ffca5f" d="M3.98857 0.505C3.96957 0.320177 3.05215 0.18386 3.00875 0C2.76937 0.74787 2.72113 0.576572 2.565 0.9625C2.46526 0.895671 1.95921 0.859298 1.565 0.175C1.08202 0.623435 0.687089 0.306092 0.0135674 0.4925C-0.12793 2.08698 0.858998 3.13625 1.96357 3.13625C3.06814 3.13625 4.15205 2.09532 3.98857 0.505Z"/><path id="top_half" transform="translate(3.4, 0.4), scale(2.5, 2.5)" fill="#ffca5f" d="M2.76587 2.4575C2.83823 2.26821 3.82362 2.75148 3.77166 2.54512C3.4364 1.21363 2.52774 0.00154718 1.85819 1.51775e-06C1.18214 -0.00155916 0.305295 1.20071 0.00144918 2.56193C-0.042269 2.75778 0.914808 2.67068 1.29712 2.5575C2.12437 2.87073 1.7113 2.70125 2.23462 3.42625C2.83919 2.2575 2.67935 2.57282 2.76587 2.4575Z"/>
</svg>